<?xml version="1.0" encoding="utf-8"?>
<!-- Generator: Adobe Illustrator 21.1.0, SVG Export Plug-In . SVG Version: 6.00 Build 0)  -->
<svg version="1.1" id="d5b22720-8aa1-41c4-97a1-891a492b3ec6"
	 xmlns="http://www.w3.org/2000/svg" xmlns:xlink="http://www.w3.org/1999/xlink" x="0px" y="0px" viewBox="0 0 335.3 126.7"
	 style="enable-background:new 0 0 335.3 126.7;" xml:space="preserve">
<style type="text/css">
	.st0{fill:#B2EBF2;}
	.st1{fill:#E0F7FA;}
	.st2{fill:#FFFFFF;}
	.st3{fill:#677089;}
	.st4{fill:#C5CAE9;}
	.st5{fill:#49AC4D;stroke:#49AC4D;stroke-width:0.8672;stroke-miterlimit:10;}
</style>
<title>sign-expiry</title>
<path class="st0" d="M64.8,30.5h13c4.4,0,8,3.6,8,8l0,0c0,4.4-3.6,8-8,8H35.9c-4.4,0-8,3.6-8,8l0,0c0,4.4,3.6,8,8,8h20
	c4.4,0,8,3.6,8,8l0,0c0,4.4-3.6,8-8,8h-20c-4.4,0-8,3.6-8,8l0,0c0,4.4,3.6,8,8,8h33c4.4,0,8,3.6,8,8l0,0c0,4.4-3.6,8-8,8h-9.4
	c-4.4,0-8,3.6-8,8l0,0l0,0c0,4.4,3.6,8,8,8c0,0,0,0,0,0h230.8c4.4,0,8-3.6,8-8v0l0,0c0-4.4-3.6-8-8-8l0,0h-17.9c-4.4,0-8-3.6-8-8
	c0,0,0,0,0,0l0,0c0-4.4,3.6-8,8-8l0,0h17.9c4.4,0,8-3.6,8-8c0,0,0,0,0,0l0,0c0-4.4-3.6-8-8-8l0,0h-31.8c-4.4,0-8-3.6-8-8
	c0,0,0,0,0,0l0,0c0-4.4,3.6-8,8-8l0,0h9.4c4.4,0,8-3.6,8-8c0,0,0,0,0,0l0,0c0-4.4-3.6-8-8-8l0,0h-14.3c-4.4,0-8-3.6-8-8v0l0,0
	c0-4.4,3.6-8,8-8l0,0h36.6c4.4,0,8-3.6,8-8v0l0,0c0-4.4-3.6-8-8-8l0,0H64.8c-4.4,0-8,3.6-8,8l0,0C56.8,26.9,60.4,30.5,64.8,30.5z"/>
<path class="st0" d="M8,46.5h0.3c4.4,0,8,3.6,8,8v0.3c0,4.4-3.6,8-8,8H8c-4.4,0-8-3.6-8-8v-0.3C0,50.1,3.6,46.5,8,46.5z"/>
<path class="st0" d="M327,78.5h0.3c4.4,0,8,3.6,8,8v0.3c0,4.4-3.6,8-8,8H327c-4.4,0-8-3.6-8-8v-0.3C318.9,82.1,322.5,78.5,327,78.5z
	"/>
<rect x="266" y="70.6" class="st1" width="16" height="16"/>
<rect x="85.3" class="st1" width="21.8" height="21.5"/>
<rect x="43.9" y="100.1" class="st1" width="21.8" height="21.5"/>
<path class="st2" d="M230.7,117.5V39.1c0-2.9-2.4-5.3-5.3-5.3l0,0H105.9c-2.9,0-5.3,2.4-5.3,5.3v78.4H86.2c0,4.6,3.7,8.3,8.3,8.3
	l0,0h142.2c4.6,0,8.3-3.7,8.3-8.3L230.7,117.5z"/>
<path class="st3" d="M236.8,126.7H94.5c-5,0-9.1-4.1-9.1-9.1v-0.8h96.2c0.4,0,0.8,0.4,0.8,0.8s-0.4,0.8-0.8,0.8H87
	c0.4,3.8,3.6,6.7,7.5,6.7h142.2c3.8,0,7.1-2.9,7.5-6.7h-38.5c-0.4,0-0.8-0.4-0.8-0.8c0-0.4,0.4-0.8,0.8-0.8h40.1v0.8
	C245.9,122.6,241.8,126.7,236.8,126.7z"/>
<path class="st3" d="M200.9,118.3h-5.6c-0.4,0-0.8-0.4-0.8-0.8c0-0.4,0.4-0.8,0.8-0.8h5.6c0.4,0,0.8,0.4,0.8,0.8
	C201.8,118,201.4,118.3,200.9,118.3C201,118.3,200.9,118.3,200.9,118.3z"/>
<path class="st3" d="M230.7,118.3c-0.4,0-0.8-0.4-0.8-0.8v0V39.1c0-2.5-2-4.5-4.5-4.5H105.9c-2.5,0-4.5,2-4.5,4.5v78.4
	c0,0.4-0.4,0.8-0.8,0.8c-0.4,0-0.8-0.4-0.8-0.8c0,0,0,0,0,0V39.1c0-3.4,2.7-6.1,6.1-6.1h119.5c3.4,0,6.1,2.7,6.1,6.1v78.4
	C231.5,118,231.1,118.3,230.7,118.3C230.7,118.3,230.7,118.3,230.7,118.3z"/>
<path class="st3" d="M220.2,111.6c-0.4,0-0.8-0.4-0.8-0.8v0V47.4c0-2-1.6-3.6-3.6-3.6H115.6c-2,0-3.6,1.6-3.6,3.6v63.4
	c0,0.4-0.4,0.8-0.8,0.8s-0.8-0.4-0.8-0.8c0,0,0,0,0,0V47.4c0-2.9,2.4-5.2,5.3-5.3h100.1c2.9,0,5.2,2.4,5.3,5.3v63.4
	C221,111.3,220.6,111.6,220.2,111.6C220.2,111.6,220.2,111.6,220.2,111.6z"/>
<path class="st2" d="M186.5,8.1h-56.1c-2.5,0-4.5,2-4.5,4.5v91.3c0,2.5,2,4.5,4.5,4.5h70.4c2.5,0,4.5-2,4.5-4.5V26.6L186.5,8.1z"/>
<path class="st3" d="M200.8,109.1h-70.4c-2.9,0-5.3-2.4-5.3-5.3V88.9c0-0.4,0.4-0.8,0.8-0.8s0.8,0.4,0.8,0.8l0,0v14.9
	c0,2,1.6,3.6,3.7,3.7h70.4c2,0,3.6-1.6,3.7-3.7V27L186.6,8.9h-56.2c-2,0-3.6,1.6-3.7,3.7v71.2c0,0.4-0.4,0.8-0.8,0.8
	s-0.8-0.4-0.8-0.8V12.5c0-2.9,2.4-5.3,5.3-5.3H187c0.2,0,0.4,0.1,0.6,0.2l18.3,18.6c0.1,0.1,0.2,0.4,0.2,0.6v77.2
	C206.1,106.7,203.7,109.1,200.8,109.1z"/>
<path class="st3" d="M205.3,27.4h-8.2c-0.4,0-0.8-0.4-0.8-0.8c0-0.4,0.4-0.8,0.8-0.8h8.2c0.4,0,0.8,0.4,0.8,0.8
	C206.1,27.1,205.7,27.4,205.3,27.4z"/>
<path class="st3" d="M192.4,27.4H187c-0.4,0-0.8-0.4-0.8-0.8c0,0,0,0,0,0V8.1c0-0.4,0.4-0.8,0.8-0.8s0.8,0.4,0.8,0.8v17.8h4.6
	c0.4,0,0.8,0.4,0.8,0.8C193.1,27.1,192.8,27.4,192.4,27.4L192.4,27.4z"/>
<rect x="138.3" y="83.8" class="st4" width="56.6" height="4.3"/>
<rect x="169.5" y="39.1" class="st0" width="25.4" height="14.1"/>
<path class="st3" d="M160.2,27.3h-23.4c-0.4,0-0.8-0.4-0.8-0.8c0-0.4,0.4-0.8,0.8-0.8h23.4c0.4,0,0.8,0.4,0.8,0.8
	C161,27,160.6,27.3,160.2,27.3z"/>
<path class="st3" d="M196.8,37.2h-39.5c-0.4,0-0.8-0.4-0.8-0.8c0-0.4,0.4-0.8,0.8-0.8h39.5c0.4,0,0.8,0.4,0.8,0.8
	C197.6,36.9,197.2,37.2,196.8,37.2z"/>
<path class="st3" d="M150.6,37.2h-13.9c-0.4,0-0.8-0.4-0.8-0.8c0-0.4,0.4-0.8,0.8-0.8h13.9c0.4,0,0.8,0.4,0.8,0.8
	C151.4,36.9,151.1,37.2,150.6,37.2z"/>
<path class="st3" d="M196.8,47.2h-60c-0.4,0-0.8-0.4-0.8-0.8c0-0.4,0.4-0.8,0.8-0.8h60c0.4,0,0.8,0.4,0.8,0.8
	C197.6,46.8,197.2,47.2,196.8,47.2z"/>
<path class="st3" d="M196.8,57.1h-60c-0.4,0-0.8-0.4-0.8-0.8c0-0.4,0.4-0.8,0.8-0.8h60c0.4,0,0.8,0.4,0.8,0.8
	C197.6,56.8,197.2,57.1,196.8,57.1z"/>
<path class="st3" d="M186.9,67.1h-50.2c-0.4,0-0.8-0.4-0.8-0.8c0-0.4,0.4-0.8,0.8-0.8h50.2c0.4,0,0.8,0.4,0.8,0.8
	C187.7,66.7,187.4,67.1,186.9,67.1L186.9,67.1z"/>
<path class="st3" d="M193.5,70.1c-2.1,0-3.8-1.7-3.8-3.8s1.7-3.8,3.8-3.8s3.8,1.7,3.8,3.8l0,0C197.3,68.4,195.6,70.1,193.5,70.1z
	 M193.5,64.1c-1.2,0-2.2,1-2.2,2.2c0,1.2,1,2.2,2.2,2.2s2.2-1,2.2-2.2v0C195.7,65,194.7,64.1,193.5,64.1z"/>
<path class="st3" d="M196.8,98.5h-2.3c-0.4,0-0.8-0.4-0.8-0.8c0-0.4,0.4-0.8,0.8-0.8h2.3c0.4,0,0.8,0.4,0.8,0.8
	C197.6,98.1,197.2,98.5,196.8,98.5z M189.7,98.5h-2.4c-0.4,0-0.8-0.4-0.8-0.8c0-0.4,0.4-0.8,0.8-0.8h2.4c0.4,0,0.8,0.4,0.8,0.8
	C190.5,98.1,190.1,98.5,189.7,98.5z M182.5,98.5h-2.4c-0.4,0-0.8-0.4-0.8-0.8c0-0.4,0.4-0.8,0.8-0.8h2.4c0.4,0,0.8,0.4,0.8,0.8
	C183.3,98.1,182.9,98.5,182.5,98.5L182.5,98.5z M175.2,98.5h-2.4c-0.4,0-0.8-0.4-0.8-0.8c0-0.4,0.4-0.8,0.8-0.8h2.4
	c0.4,0,0.8,0.4,0.8,0.8C176,98.1,175.7,98.5,175.2,98.5z M168,98.5h-2.4c-0.4,0-0.8-0.4-0.8-0.8c0-0.4,0.4-0.8,0.8-0.8h2.4
	c0.4,0,0.8,0.4,0.8,0.8C168.8,98.1,168.5,98.5,168,98.5z M160.8,98.5h-2.4c-0.4,0-0.8-0.4-0.8-0.8c0-0.4,0.4-0.8,0.8-0.8h2.4
	c0.4,0,0.8,0.4,0.8,0.8C161.6,98.1,161.2,98.5,160.8,98.5z M153.6,98.5h-2.4c-0.4,0-0.8-0.4-0.8-0.8c0-0.4,0.4-0.8,0.8-0.8h2.4
	c0.4,0,0.8,0.4,0.8,0.8C154.4,98.1,154,98.5,153.6,98.5z M146.4,98.5H144c-0.4,0-0.8-0.4-0.8-0.8c0-0.4,0.4-0.8,0.8-0.8h2.4
	c0.4,0,0.8,0.4,0.8,0.8C147.2,98.1,146.8,98.5,146.4,98.5L146.4,98.5z M139.1,98.5h-2.4c-0.4,0-0.8-0.4-0.8-0.8
	c0-0.4,0.4-0.8,0.8-0.8h2.4c0.4,0,0.8,0.4,0.8,0.8C139.9,98.1,139.6,98.5,139.1,98.5L139.1,98.5z"/>
<path class="st3" d="M192.6,94.1c-0.2,0-0.4-0.1-0.6-0.2l-6.2-6.2c-0.3-0.3-0.3-0.8,0-1.1s0.8-0.3,1.1,0l0,0l6.2,6.2
	c0.3,0.3,0.3,0.8,0,1.1C193,94,192.8,94.1,192.6,94.1z"/>
<path class="st3" d="M186.4,94.1c-0.4,0-0.8-0.4-0.8-0.8c0-0.2,0.1-0.4,0.2-0.6l6.4-6.5c0.3-0.3,0.8-0.3,1.1,0s0.3,0.8,0,1.1
	l-6.4,6.5C186.8,94,186.6,94.1,186.4,94.1z"/>
<circle class="st2" cx="217.5" cy="97.3" r="18.2"/>
<path class="st5" d="M217.5,79.2c-10.1,0-18.2,8.1-18.2,18.2s8.1,18.2,18.2,18.2s18.2-8.1,18.2-18.2c0-2-0.3-3.9-1-5.7l-2.3,2.2
	c0.3,1.1,0.4,2.2,0.4,3.5c0,8.5-6.8,15.4-15.4,15.4c-8.5,0-15.4-6.8-15.4-15.4c0-8.5,6.8-15.4,15.4-15.4c4.2,0,8,1.7,10.6,4.3l2-2
	C226.8,81.2,222.4,79.2,217.5,79.2z M233.3,85.2L217.5,101l-6-6l-2,2l7,7l1,1l1-1l16.8-16.8L233.3,85.2z"/>
</svg>
